<svg fill="#818cf8" class="bg-white w-12 h-12" viewBox="0 0 512 512" xmlns="http://www.w3.org/2000/svg"><g>
  <path d="m497 30.125h-180.75c-24.619 0-46.513 11.884-60.25 30.216-13.737-18.332-35.631-30.216-60.25-30.216h-180.75c-8.284 0-15 6.716-15 15v361.5c0 8.284 6.716 15 15 15h75.375v45.25c0 5.535 3.047 10.619 7.929 13.229 4.881 2.609 10.802 2.319 15.404-.756l21.792-14.559 21.792 14.559c2.513 1.679 5.418 2.527 8.333 2.527 2.424 0 4.855-.587 7.07-1.771 4.881-2.609 7.929-7.694 7.929-13.229v-45.25h316.376c8.284 0 15-6.716 15-15v-361.5c0-8.284-6.716-15-15-15zm-15 331.25v30.25h-208.445c6.202-17.601 23-30.25 42.695-30.25zm-338.167 72.902c-2.522-1.685-5.427-2.527-8.333-2.527s-5.811.842-8.333 2.527l-6.792 4.538v-77.44h30.25v77.44zm51.917-374.152c24.951 0 45.25 20.299 45.25 45.25v241.17c-12.603-9.516-28.277-15.17-45.25-15.17h-165.75v-271.25zm-165.75 301.25h60.375v30.25h-60.375zm150.625 0h15.125c19.695 0 36.493 12.649 42.695 30.25h-57.82zm135.625-30c-16.973 0-32.647 5.654-45.25 15.17v-241.17c0-24.951 20.299-45.25 45.25-45.25h165.75v271.25z"/>
  <path d="m95.333 190.666h25.167v65.334c0 8.284 6.716 15 15 15s15-6.716 15-15v-65.333h25.167c8.284 0 15-6.716 15-15s-6.716-15-15-15h-25.167v-25.167c0-8.284-6.716-15-15-15s-15 6.716-15 15v25.167h-25.167c-8.284 0-15 6.716-15 15s6.716 14.999 15 14.999z"/>
  <path d="m336.333 150.5h80.333c8.284 0 15-6.716 15-15s-6.716-15-15-15h-80.333c-8.284 0-15 6.716-15 15s6.716 15 15 15z"/>
  <path d="m416.667 180.75h-80.333c-8.284 0-15 6.716-15 15s6.716 15 15 15h80.333c8.284 0 15-6.716 15-15s-6.716-15-15-15z"/>
  <path d="m416.667 241h-80.333c-8.284 0-15 6.716-15 15s6.716 15 15 15h80.333c8.284 0 15-6.716 15-15s-6.716-15-15-15z"/></g>
</svg>